<svg width="23" height="23" viewBox="0 0 23 23" fill="none" xmlns="http://www.w3.org/2000/svg">
<path d="M17.8109 4.83484C17.0957 4.83484 16.5235 5.41297 16.5235 6.12164C16.5235 6.83653 17.1019 7.40845 17.8109 7.40845C18.5262 7.40845 19.0984 6.83032 19.0984 6.12164C19.1046 5.41297 18.5262 4.83484 17.8109 4.83484Z" fill="black"/>
<path d="M12.0755 6.48877C9.09009 6.48877 6.6582 8.9194 6.6582 11.9033C6.6582 14.8872 9.09009 17.3178 12.0755 17.3178C15.061 17.3178 17.4929 14.8872 17.4929 11.9033C17.4929 8.9194 15.061 6.48877 12.0755 6.48877ZM12.0755 15.3783C10.1599 15.3783 8.60496 13.8242 8.60496 11.9095C8.60496 9.99484 10.1599 8.44073 12.0755 8.44073C13.9912 8.44073 15.5461 9.99484 15.5461 11.9095C15.5461 13.818 13.9912 15.3783 12.0755 15.3783Z" fill="black"/>
<path d="M16.3804 22.9062H7.59198C3.94725 22.9062 0.980469 19.941 0.980469 16.2982V7.51433C0.980469 3.87149 3.94725 0.90625 7.59198 0.90625H16.3804C20.0251 0.90625 22.9919 3.87149 22.9919 7.51433V16.2982C22.9857 19.941 20.0251 22.9062 16.3804 22.9062ZM7.59198 2.97633C5.09167 2.97633 3.05162 5.0091 3.05162 7.51433V16.2982C3.05162 18.7972 5.08545 20.8362 7.59198 20.8362H16.3804C18.8807 20.8362 20.9207 18.8034 20.9207 16.2982V7.51433C20.9207 5.01532 18.8869 2.97633 16.3804 2.97633H7.59198Z" fill="black"/>
</svg>
