<svg width="50" height="50" viewBox="0 0 50 50" fill="none" xmlns="http://www.w3.org/2000/svg">
<g id="Group 5" opacity="0.6">
<path id="Vector" d="M17.0647 49.5689C16.1853 49.2872 15.5153 48.7911 15.3161 47.8305C15.2679 47.6008 15.2527 47.3597 15.2527 47.1237C15.2501 32.5248 15.2488 17.9259 15.2514 3.32703C15.2514 2.04162 16.0445 1.10008 17.2385 0.944004C18.3272 0.801885 19.3881 1.52771 19.6659 2.62786C19.7269 2.86895 19.7357 3.12908 19.7357 3.38033C19.7383 17.9475 19.7395 32.5147 19.7383 47.0819C19.7383 48.4282 19.3221 48.9878 17.9186 49.5677C17.6357 49.5689 17.3502 49.5689 17.0647 49.5689Z" fill="black"/>
<path id="Vector_2" d="M49.1729 27.1484C48.8963 28.0049 48.4204 28.6597 47.489 28.8919C46.0945 29.2396 44.7799 28.3336 44.7025 26.8984C44.6454 25.8427 44.6619 24.7806 44.6873 23.7223C44.7139 22.6057 45.5197 21.7111 46.5779 21.555C47.6515 21.3964 48.6653 22.008 49.0511 23.0473C49.0891 23.1488 49.1335 23.2478 49.1742 23.348C49.1729 24.6144 49.1729 25.8808 49.1729 27.1484Z" fill="black"/>
<path id="Vector_3" d="M22.5907 25.2374C22.5907 20.6947 22.5881 16.1507 22.5919 11.608C22.5932 10.216 23.5157 9.2072 24.7884 9.18309C26.0383 9.15898 27.0179 10.0637 27.1118 11.3339C27.1207 11.4595 27.1182 11.5864 27.1182 11.7133C27.1182 20.7201 27.1194 29.7281 27.1156 38.7349C27.1156 39.0027 27.0941 39.2742 27.0458 39.5356C26.8428 40.6167 25.9736 41.3146 24.8493 41.3134C23.7289 41.3121 22.8622 40.6116 22.6617 39.5254C22.611 39.2476 22.5932 38.9595 22.5932 38.6765C22.5894 34.1973 22.5894 29.718 22.5907 25.2374Z" fill="black"/>
<path id="Vector_4" d="M37.3092 25.2235C37.3092 20.6655 37.3054 16.1076 37.3117 11.5496C37.313 10.1208 38.3332 9.12601 39.7049 9.18565C40.6997 9.22879 41.5905 9.99649 41.7656 10.9761C41.81 11.2235 41.824 11.4799 41.824 11.7311C41.8265 20.7366 41.8265 29.7421 41.8253 38.7476C41.8253 40.0292 41.3164 40.8604 40.3406 41.1954C38.7976 41.7245 37.3396 40.6726 37.3143 38.9938C37.2952 37.7439 37.3105 36.4928 37.3105 35.2429C37.3092 31.9018 37.3092 28.5633 37.3092 25.2235Z" fill="black"/>
<path id="Vector_5" d="M12.4029 25.2589C12.4029 28.4248 12.4067 31.5895 12.4016 34.7555C12.3991 36.103 11.6936 36.9811 10.4716 37.1816C9.26742 37.3796 8.133 36.5662 7.94393 35.3595C7.90714 35.126 7.88937 34.8874 7.88937 34.6514C7.88683 28.3677 7.88556 22.084 7.8881 15.8016C7.8881 14.5289 8.51622 13.6381 9.58845 13.3691C11.0667 12.9973 12.3953 14.0734 12.4004 15.6684C12.4093 18.8648 12.4029 22.0625 12.4029 25.2589Z" fill="black"/>
<path id="Vector_6" d="M34.4582 25.2286C34.4582 27.0952 34.4734 28.963 34.4531 30.8296C34.4379 32.2673 33.3428 33.2101 31.9191 33.0553C30.8202 32.936 30.0182 32.0884 29.9827 30.9514C29.9522 29.9401 29.97 28.9262 29.97 27.9136C29.97 25.1449 29.9636 22.3761 29.9763 19.6073C29.9814 18.6366 30.593 17.8372 31.5003 17.5314C32.3784 17.2357 33.3466 17.5098 33.9455 18.2318C34.3148 18.6759 34.4658 19.1924 34.4632 19.7697C34.4556 21.5894 34.4607 23.409 34.4607 25.2286C34.4582 25.2286 34.4582 25.2286 34.4582 25.2286Z" fill="black"/>
<path id="Vector_7" d="M5.02213 25.249C5.02213 25.787 5.05004 26.3263 5.01705 26.8618C4.93965 28.0977 4.03364 28.9479 2.81929 28.958C1.58082 28.9682 0.613909 28.1142 0.556807 26.8732C0.506051 25.7844 0.508588 24.6894 0.555538 23.5994C0.606295 22.432 1.63031 21.5323 2.80914 21.5374C3.974 21.5437 4.94346 22.4269 5.01705 23.5879C5.05131 24.1399 5.02213 24.6957 5.02213 25.249Z" fill="black"/>
</g>
</svg>
