<svg width="54" height="52" viewBox="0 0 54 52" fill="none" xmlns="http://www.w3.org/2000/svg">
<path d="M16.8984 24.9998C16.3462 24.9998 15.8984 25.4475 15.8984 25.9998C15.8984 26.552 16.3462 26.9998 16.8984 26.9998L16.8984 24.9998ZM32.589 26.7069C32.9795 26.3163 32.9795 25.6832 32.589 25.2927L26.225 18.9287C25.8345 18.5382 25.2013 18.5382 24.8108 18.9287C24.4203 19.3192 24.4203 19.9524 24.8108 20.3429L30.4677 25.9998L24.8108 31.6566C24.4203 32.0471 24.4203 32.6803 24.8108 33.0708C25.2013 33.4613 25.8345 33.4613 26.225 33.0708L32.589 26.7069ZM16.8984 26.9998L31.8819 26.9998L31.8819 24.9998L16.8984 24.9998L16.8984 26.9998Z" fill="black"/>
<path d="M12.6953 25.9998L8.16039 25.9998" stroke="black" stroke-width="2" stroke-linecap="round"/>
<path d="M3.95715 25.9998H1.49648" stroke="black" stroke-width="2" stroke-linecap="round"/>
<path d="M21.8923 7.34038C21.6696 6.59419 22.0932 5.80376 22.8527 5.63185C25.5846 5.01352 28.4179 4.95004 31.1835 5.45081C34.4124 6.03547 37.4581 7.37282 40.0736 9.35442C42.6891 11.336 44.8009 13.9061 46.2376 16.8563C47.6744 19.8065 48.3956 23.0537 48.343 26.3347C48.2904 29.6157 47.4653 32.8381 45.9346 35.7407C44.404 38.6433 42.2109 41.1443 39.5331 43.0409C36.8554 44.9376 33.7684 46.1766 30.5223 46.6574C27.7421 47.0691 24.9123 46.9148 22.2017 46.2092C21.4481 46.013 21.05 45.2093 21.2966 44.4707C21.5432 43.732 22.341 43.3389 23.0966 43.5271C25.3849 44.0971 27.7674 44.2146 30.1092 43.8678C32.9168 43.4519 35.587 42.3803 37.9032 40.7397C40.2193 39.0992 42.1163 36.9359 43.4402 34.4253C44.7642 31.9147 45.4778 29.1274 45.5234 26.2895C45.5689 23.4515 44.945 20.6428 43.7023 18.091C42.4596 15.5392 40.633 13.3162 38.3707 11.6022C36.1083 9.88815 33.4739 8.7314 30.681 8.22569C28.3516 7.80389 25.9666 7.84491 23.6611 8.34123C22.8998 8.50512 22.1151 8.08656 21.8923 7.34038Z" fill="black"/>
</svg>
