<svg width="53" height="52" viewBox="0 0 53 52" fill="none" xmlns="http://www.w3.org/2000/svg">
<path d="M36.5645 26.9996C37.1167 26.9996 37.5645 26.5519 37.5645 25.9996C37.5645 25.4473 37.1167 24.9996 36.5645 24.9996L36.5645 26.9996ZM20.8739 25.2925C20.4834 25.683 20.4834 26.3162 20.8739 26.7067L27.2379 33.0707C27.6284 33.4612 28.2615 33.4612 28.6521 33.0707C29.0426 32.6802 29.0426 32.047 28.6521 31.6565L22.9952 25.9996L28.6521 20.3428C29.0426 19.9523 29.0426 19.3191 28.6521 18.9286C28.2616 18.538 27.6284 18.538 27.2379 18.9286L20.8739 25.2925ZM36.5645 24.9996L21.581 24.9996L21.581 26.9996L36.5645 26.9996L36.5645 24.9996Z" fill="black"/>
<path d="M40.7676 25.9996L45.3025 25.9996" stroke="black" stroke-width="2" stroke-linecap="round"/>
<path d="M49.5057 25.9996L51.9664 25.9996" stroke="black" stroke-width="2" stroke-linecap="round"/>
<path d="M31.5706 44.659C31.7934 45.4052 31.3698 46.1956 30.6103 46.3675C27.8784 46.9859 25.0451 47.0493 22.2795 46.5486C19.0506 45.9639 16.0049 44.6266 13.3893 42.645C10.7738 40.6634 8.66206 38.0933 7.22532 35.1431C5.78859 32.1929 5.0673 28.9457 5.11994 25.6647C5.17258 22.3837 5.99767 19.1613 7.52831 16.2587C9.05895 13.3561 11.2521 10.8551 13.9298 8.95844C16.6076 7.06177 19.6946 5.82281 22.9406 5.34204C25.7208 4.93025 28.5507 5.08459 31.2613 5.79023C32.0149 5.98642 32.4129 6.79004 32.1664 7.52869C31.9198 8.26734 31.122 8.66051 30.3663 8.47228C28.078 7.90226 25.6956 7.78475 23.3538 8.1316C20.5461 8.54746 17.8759 9.61911 15.5598 11.2597C13.2436 12.9002 11.3467 15.0635 10.0227 17.5741C8.69878 20.0847 7.98511 22.872 7.93958 25.7099C7.89405 28.5479 8.51793 31.3566 9.76065 33.9084C11.0034 36.4602 12.83 38.6832 15.0923 40.3972C17.3546 42.1112 19.989 43.268 22.7819 43.7737C25.1114 44.1955 27.4964 44.1545 29.8018 43.6582C30.5631 43.4943 31.3479 43.9128 31.5706 44.659Z" fill="black"/>
</svg>
