<svg width="20" height="23" viewBox="0 0 20 23" fill="none" xmlns="http://www.w3.org/2000/svg">
<path d="M19.3701 9.81479C19.1931 9.83308 19.0101 9.83918 18.8271 9.83918C16.8444 9.83918 14.9958 8.83918 13.9099 7.18064V16.2233C13.9099 19.9184 10.9144 22.9062 7.22351 22.9062C3.52647 22.9062 0.537109 19.9124 0.537109 16.2233C0.537109 12.5282 3.53257 9.5404 7.22351 9.5404C7.36383 9.5404 7.49804 9.55259 7.63836 9.55869V12.8514C7.49804 12.8331 7.36383 12.8087 7.22351 12.8087C5.33838 12.8087 3.8071 14.3392 3.8071 16.2233C3.8071 18.1075 5.33838 19.638 7.22351 19.638C9.10863 19.638 10.7741 18.1502 10.7741 16.266L10.8046 0.90625H13.9587C14.2576 3.73552 16.5332 5.94284 19.3701 6.15016V9.81479Z" fill="black"/>
</svg>
