<svg width="21" height="17" viewBox="0 0 21 17" fill="none" xmlns="http://www.w3.org/2000/svg">
<path id="Vector" d="M20.7588 2.47344C20.1189 2.7487 19.4162 2.91624 18.7387 3.02395C19.0649 2.97608 19.5417 2.4136 19.7299 2.18622C20.0185 1.83916 20.2694 1.44423 20.4074 1.01339C20.42 0.977491 20.4325 0.941588 20.4074 0.917653C20.3698 0.905686 20.3322 0.905686 20.2945 0.929621C19.5292 1.31258 18.7387 1.59981 17.898 1.80326C17.8228 1.81522 17.7726 1.80326 17.7349 1.76735C17.6597 1.69555 17.5969 1.62374 17.5216 1.5639C17.1703 1.27668 16.7939 1.0493 16.3548 0.88175C15.7901 0.666333 15.1753 0.570593 14.5731 0.606495C13.9834 0.642398 13.4062 0.797977 12.8792 1.06126C12.3523 1.32455 11.888 1.68358 11.5116 2.12638C11.1352 2.56918 10.8466 3.10772 10.7086 3.68217C10.5706 4.23268 10.5831 4.77122 10.671 5.32173C10.6835 5.41747 10.671 5.42944 10.5831 5.41747C7.28327 4.93877 4.54802 3.82578 2.3272 1.40832C2.23937 1.30062 2.18918 1.30062 2.10135 1.42029C1.13523 2.80853 1.59947 5.03451 2.81653 6.13553C2.97964 6.27914 3.14275 6.42275 3.31841 6.56636C3.25568 6.56636 2.45267 6.48259 1.73749 6.12356C1.63711 6.07569 1.58692 6.09963 1.58692 6.20733C1.57437 6.36291 1.58692 6.49456 1.61202 6.6621C1.80022 8.06231 2.81653 9.36678 4.2218 9.88139C4.38491 9.95319 4.57311 10.0011 4.74877 10.037C4.42255 10.0968 4.09633 10.1447 3.18039 10.0729C3.06747 10.0489 3.02983 10.1088 3.06747 10.2165C3.75756 11.9997 5.2381 12.5382 6.34224 12.8374C6.49281 12.8613 6.64337 12.8613 6.79393 12.8972C6.78139 12.9092 6.78139 12.9092 6.76884 12.9212C6.40498 13.4597 5.12518 13.8546 4.53547 14.0581C3.45643 14.4171 2.27701 14.5847 1.13523 14.4769C0.947024 14.453 0.909383 14.453 0.859194 14.4769C0.809006 14.5009 0.846647 14.5488 0.909383 14.5966C1.13523 14.7402 1.37362 14.8719 1.61202 14.9916C2.33974 15.3626 3.09256 15.6498 3.88303 15.8532C7.97335 16.9303 12.5656 16.1404 15.6396 13.2323C18.0486 10.9465 18.8893 7.79903 18.8893 4.65155C18.8893 4.53187 19.0398 4.46006 19.1277 4.40023C19.755 3.94546 20.2569 3.41888 20.7211 2.80853C20.8215 2.67689 20.8215 2.55721 20.8215 2.50934C20.8215 2.49738 20.8215 2.49738 20.8215 2.49738C20.8466 2.42557 20.8466 2.43754 20.7588 2.47344Z" fill="#191919"/>
</svg>
